<svg viewBox="0 0 640 360" fill="none" xmlns="http://www.w3.org/2000/svg">
  <rect width="640" height="360" fill="#0F1117"/>
  <!-- Sidebar -->
  <rect x="0" y="0" width="64" height="360" fill="#1A1A2E"/>
  <!-- Channel icons -->
  <circle cx="32" cy="40" r="18" fill="#5865F2"/>
  <circle cx="32" cy="100" r="18" fill="#2D2D3A"/>
  <circle cx="32" cy="156" r="18" fill="#2D2D3A"/>
  <circle cx="32" cy="212" r="18" fill="#2D2D3A"/>
  <!-- Channels panel -->
  <rect x="64" y="0" width="180" height="360" fill="#1E1E2E"/>
  <rect x="80" y="20" width="120" height="8" rx="4" fill="#3D3D5C"/>
  <rect x="80" y="60" width="144" height="6" rx="3" fill="#4B5563"/>
  <rect x="80" y="80" width="120" height="6" rx="3" fill="#374151"/>
  <rect x="80" y="100" width="132" height="6" rx="3" fill="#374151"/>
  <rect x="80" y="130" width="144" height="6" rx="3" fill="#4B5563"/>
  <rect x="80" y="150" width="100" height="6" rx="3" fill="#374151"/>
  <!-- Chat area -->
  <rect x="244" y="0" width="396" height="48" fill="#1A1A2A"/>
  <rect x="264" y="16" width="200" height="10" rx="5" fill="#3D3D5C"/>
  <!-- Messages -->
  <!-- Message 1 -->
  <circle cx="276" cy="90" r="16" fill="#5865F2"/>
  <rect x="304" y="75" width="80" height="7" rx="3" fill="#A5B4FC"/>
  <rect x="304" y="88" width="220" height="7" rx="3" fill="#6B7280"/>
  <rect x="304" y="101" width="160" height="7" rx="3" fill="#6B7280"/>
  <!-- Message 2 -->
  <circle cx="276" cy="138" r="16" fill="#10B981"/>
  <rect x="304" y="123" width="64" height="7" rx="3" fill="#6EE7B7"/>
  <rect x="304" y="136" width="280" height="7" rx="3" fill="#6B7280"/>
  <rect x="304" y="149" width="200" height="7" rx="3" fill="#6B7280"/>
  <!-- Message 3 (current user, highlighted) -->
  <circle cx="276" cy="186" r="16" fill="#F59E0B"/>
  <rect x="304" y="171" width="72" height="7" rx="3" fill="#FCD34D"/>
  <rect x="304" y="184" width="240" height="7" rx="3" fill="#6B7280"/>
  <!-- Video call area (top right) -->
  <rect x="520" y="60" width="110" height="70" rx="8" fill="#1F2937"/>
  <circle cx="575" cy="87" r="14" fill="#374151"/>
  <text x="575" y="123" text-anchor="middle" fill="#6B7280" font-family="monospace" font-size="9">VIDEO</text>
  <!-- Input bar -->
  <rect x="244" y="310" width="396" height="50" fill="#1A1A2A"/>
  <rect x="264" y="322" width="340" height="26" rx="6" fill="#2D2D3D"/>
  <rect x="278" y="332" width="120" height="6" rx="3" fill="#4B5563" opacity="0.5"/>
</svg>
