<svg viewBox="0 0 640 360" fill="none" xmlns="http://www.w3.org/2000/svg">
  <rect width="640" height="360" fill="#0A0F0D"/>
  <rect x="40" y="40" width="320" height="190" rx="18" fill="#0F1F17"/>
  <rect x="40" y="40" width="320" height="190" rx="18" stroke="#1A3A28" stroke-width="1.5"/>
  <rect x="64" y="80" width="40" height="8" rx="4" fill="#2D5A42"/>
  <rect x="112" y="80" width="40" height="8" rx="4" fill="#2D5A42"/>
  <rect x="160" y="80" width="40" height="8" rx="4" fill="#2D5A42"/>
  <rect x="208" y="80" width="40" height="8" rx="4" fill="#2D5A42"/>
  <rect x="268" y="64" width="68" height="42" rx="8" fill="#34D399" opacity="0.15"/>
  <text x="302" y="92" text-anchor="middle" fill="#34D399" font-family="'Helvetica Neue', Arial, sans-serif" font-size="11" font-weight="800">MP</text>
  <rect x="64" y="104" width="100" height="6" rx="3" fill="#2D5A42"/>
  <rect x="64" y="118" width="60" height="5" rx="2.5" fill="#1E3D2D"/>
  <rect x="240" y="118" width="44" height="5" rx="2.5" fill="#1E3D2D"/>
  <rect x="400" y="40" width="200" height="280" rx="12" fill="#0F1218"/>
  <rect x="416" y="56" width="80" height="8" rx="4" fill="#34D399" opacity="0.7"/>
  <rect x="416" y="76" width="168" height="1" fill="#1E3D2D"/>
  <circle cx="432" cy="100" r="12" fill="#1E2D20"/>
  <rect x="452" y="93" width="80" height="6" rx="3" fill="#D1FAE5" opacity="0.6"/>
  <rect x="452" y="105" width="60" height="5" rx="2.5" fill="#4B5563"/>
  <rect x="548" y="95" width="44" height="6" rx="3" fill="#34D399" opacity="0.8"/>
  <circle cx="432" cy="136" r="12" fill="#1E2D20"/>
  <rect x="452" y="129" width="100" height="6" rx="3" fill="#D1FAE5" opacity="0.6"/>
  <rect x="452" y="141" width="70" height="5" rx="2.5" fill="#4B5563"/>
  <rect x="548" y="131" width="40" height="6" rx="3" fill="#F87171" opacity="0.8"/>
  <circle cx="432" cy="172" r="12" fill="#1E2D20"/>
  <rect x="452" y="165" width="88" height="6" rx="3" fill="#D1FAE5" opacity="0.6"/>
  <rect x="452" y="177" width="64" height="5" rx="2.5" fill="#4B5563"/>
  <rect x="548" y="167" width="44" height="6" rx="3" fill="#34D399" opacity="0.8"/>
  <circle cx="432" cy="208" r="12" fill="#1E2D20"/>
  <rect x="452" y="201" width="76" height="6" rx="3" fill="#D1FAE5" opacity="0.6"/>
  <rect x="452" y="213" width="52" height="5" rx="2.5" fill="#4B5563"/>
  <rect x="548" y="203" width="40" height="6" rx="3" fill="#34D399" opacity="0.8"/>
  <rect x="40" y="252" width="148" height="68" rx="12" fill="#0F1F17" stroke="#1A3A28" stroke-width="1"/>
  <rect x="204" y="252" width="148" height="68" rx="12" fill="#0F1F17" stroke="#1A3A28" stroke-width="1"/>
  <rect x="56" y="268" width="60" height="7" rx="3" fill="#34D399" opacity="0.7"/>
  <rect x="56" y="284" width="80" height="6" rx="3" fill="#1A3A28"/>
  <rect x="56" y="297" width="44" height="5" rx="2.5" fill="#1A3A28"/>
  <rect x="220" y="268" width="60" height="7" rx="3" fill="#34D399" opacity="0.7"/>
  <rect x="220" y="284" width="80" height="6" rx="3" fill="#1A3A28"/>
  <rect x="220" y="297" width="44" height="5" rx="2.5" fill="#1A3A28"/>
</svg>
