<svg viewBox="0 0 640 360" fill="none" xmlns="http://www.w3.org/2000/svg">
  <rect width="640" height="360" fill="#08080E"/>
  <circle cx="320" cy="80" r="22" fill="none" stroke="#F472B6" stroke-width="2"/>
  <line x1="320" y1="102" x2="320" y2="210" stroke="#F472B6" stroke-width="2.5"/>
  <line x1="270" y1="130" x2="370" y2="130" stroke="#F472B6" stroke-width="2.5"/>
  <line x1="270" y1="130" x2="240" y2="185" stroke="#F472B6" stroke-width="2.5"/>
  <line x1="240" y1="185" x2="218" y2="235" stroke="#F472B6" stroke-width="2" stroke-dasharray="4 2"/>
  <line x1="370" y1="130" x2="400" y2="185" stroke="#F472B6" stroke-width="2.5"/>
  <line x1="400" y1="185" x2="420" y2="230" stroke="#34D399" stroke-width="2.5"/>
  <line x1="285" y1="210" x2="355" y2="210" stroke="#F472B6" stroke-width="2.5"/>
  <line x1="285" y1="210" x2="270" y2="290" stroke="#F472B6" stroke-width="2.5"/>
  <line x1="270" y1="290" x2="262" y2="340" stroke="#F472B6" stroke-width="2" stroke-dasharray="4 2"/>
  <line x1="355" y1="210" x2="365" y2="290" stroke="#F472B6" stroke-width="2.5"/>
  <line x1="365" y1="290" x2="372" y2="340" stroke="#F472B6" stroke-width="2.5"/>
  <circle cx="320" cy="130" r="5" fill="#F472B6"/>
  <circle cx="270" cy="130" r="4" fill="#F472B6"/>
  <circle cx="370" cy="130" r="4" fill="#F472B6"/>
  <circle cx="240" cy="185" r="4" fill="#F472B6"/>
  <circle cx="400" cy="185" r="4" fill="#34D399"/>
  <circle cx="420" cy="230" r="4" fill="#34D399"/>
  <circle cx="320" cy="210" r="5" fill="#F472B6"/>
  <circle cx="285" cy="210" r="4" fill="#F472B6"/>
  <circle cx="355" cy="210" r="4" fill="#F472B6"/>
  <circle cx="270" cy="290" r="4" fill="#F472B6"/>
  <circle cx="365" cy="290" r="4" fill="#F472B6"/>
  <rect x="480" y="40" width="148" height="280" rx="12" fill="#100814"/>
  <rect x="494" y="56" width="60" height="7" rx="3" fill="#F472B6" opacity="0.8"/>
  <rect x="494" y="76" width="120" height="40" rx="8" fill="#2D0A1E"/>
  <rect x="506" y="86" width="80" height="5" rx="2.5" fill="#F472B6" opacity="0.9"/>
  <rect x="506" y="96" width="100" height="5" rx="2.5" fill="#9B5B6F"/>
  <rect x="494" y="126" width="120" height="40" rx="8" fill="#0A2D1A"/>
  <rect x="506" y="136" width="60" height="5" rx="2.5" fill="#34D399" opacity="0.9"/>
  <rect x="506" y="146" width="100" height="5" rx="2.5" fill="#1F4A32"/>
  <rect x="494" y="178" width="120" height="60" rx="8" fill="#0D1117"/>
  <text x="554" y="214" text-anchor="middle" fill="#34D399" font-family="monospace" font-size="26" font-weight="900">87</text>
  <rect x="514" y="228" width="80" height="4" rx="2" fill="#1F4A32"/>
  <rect x="514" y="228" width="70" height="4" rx="2" fill="#34D399" opacity="0.7"/>
  <rect x="12" y="40" width="148" height="180" rx="12" fill="#100814"/>
  <rect x="24" y="56" width="80" height="7" rx="3" fill="#A78BFA" opacity="0.8"/>
  <rect x="24" y="76" width="120" height="5" rx="2.5" fill="#4B5563"/>
  <rect x="24" y="88" width="100" height="5" rx="2.5" fill="#4B5563"/>
  <rect x="24" y="100" width="110" height="5" rx="2.5" fill="#4B5563"/>
  <rect x="24" y="118" width="120" height="5" rx="2.5" fill="#374151"/>
  <rect x="24" y="130" width="80" height="5" rx="2.5" fill="#374151"/>
</svg>
