<svg viewBox="0 0 640 360" fill="none" xmlns="http://www.w3.org/2000/svg">
  <rect width="640" height="360" fill="#08090E"/>
  <circle cx="320" cy="180" r="120" fill="#FF6200" opacity="0.04"/>
  <circle cx="320" cy="180" r="90" fill="#FF6200" opacity="0.07"/>
  <ellipse cx="320" cy="180" rx="62" ry="64" fill="#FF8C00" opacity="0.15"/>
  <circle cx="320" cy="180" r="52" fill="#FFB300" opacity="0.9"/>
  <circle cx="320" cy="180" r="46" fill="#FF8C00"/>
  <circle cx="300" cy="170" r="12" fill="#FF6200" opacity="0.5"/>
  <circle cx="334" cy="162" r="10" fill="#FFB300" opacity="0.4"/>
  <circle cx="316" cy="192" r="8" fill="#FF6200" opacity="0.6"/>
  <circle cx="338" cy="186" r="11" fill="#FFB300" opacity="0.35"/>
  <circle cx="306" cy="194" r="7" fill="#FF8C00" opacity="0.5"/>
  <path d="M 356 148 Q 380 120 370 100 Q 395 130 375 160 Z" fill="#FFA500" opacity="0.7"/>
  <rect x="20" y="20" width="180" height="320" rx="12" fill="#0F1218" opacity="0.95"/>
  <rect x="32" y="36" width="80" height="7" rx="3" fill="#FF6200" opacity="0.7"/>
  <rect x="32" y="52" width="120" height="5" rx="2.5" fill="#374151"/>
  <rect x="32" y="64" width="100" height="5" rx="2.5" fill="#374151"/>
  <rect x="32" y="88" width="60" height="18" rx="9" fill="#FF4500" opacity="0.2"/>
  <rect x="36" y="93" width="50" height="6" rx="3" fill="#FF4500" opacity="0.9"/>
  <rect x="32" y="120" width="156" height="80" rx="6" fill="#0D1117"/>
  <rect x="44" y="170" width="14" height="20" rx="2" fill="#FF6200" opacity="0.8"/>
  <rect x="64" y="156" width="14" height="34" rx="2" fill="#FF6200" opacity="0.6"/>
  <rect x="84" y="148" width="14" height="42" rx="2" fill="#FF8C00" opacity="0.8"/>
  <rect x="104" y="140" width="14" height="50" rx="2" fill="#FFB300" opacity="0.7"/>
  <rect x="124" y="152" width="14" height="38" rx="2" fill="#FF6200" opacity="0.7"/>
  <rect x="144" y="158" width="14" height="32" rx="2" fill="#FF4500" opacity="0.9"/>
  <rect x="32" y="218" width="50" height="6" rx="3" fill="#6B7280"/>
  <rect x="130" y="218" width="58" height="6" rx="3" fill="#FCD34D" opacity="0.8"/>
  <rect x="32" y="234" width="60" height="6" rx="3" fill="#6B7280"/>
  <rect x="130" y="234" width="44" height="6" rx="3" fill="#34D399" opacity="0.8"/>
  <rect x="32" y="250" width="44" height="6" rx="3" fill="#6B7280"/>
  <rect x="130" y="250" width="52" height="6" rx="3" fill="#F97316" opacity="0.8"/>
  <rect x="440" y="20" width="180" height="320" rx="12" fill="#0F1218" opacity="0.95"/>
  <rect x="452" y="36" width="80" height="7" rx="3" fill="#60A5FA" opacity="0.7"/>
  <rect x="452" y="60" width="154" height="60" rx="6" fill="#0D1117"/>
  <rect x="464" y="72" width="100" height="5" rx="2.5" fill="#374151"/>
  <rect x="464" y="84" width="80" height="5" rx="2.5" fill="#374151"/>
  <rect x="464" y="96" width="120" height="5" rx="2.5" fill="#34D399" opacity="0.6"/>
  <rect x="452" y="136" width="154" height="100" rx="6" fill="#0D1117"/>
  <circle cx="476" cy="200" r="3" fill="#FF6200" opacity="0.8"/>
  <circle cx="490" cy="188" r="3" fill="#FF8C00" opacity="0.7"/>
  <circle cx="508" cy="204" r="3" fill="#FF6200" opacity="0.8"/>
  <circle cx="524" cy="176" r="4" fill="#FFB300" opacity="0.8"/>
  <circle cx="540" cy="192" r="3" fill="#FF4500" opacity="0.9"/>
  <circle cx="556" cy="180" r="3" fill="#FF6200" opacity="0.7"/>
  <circle cx="572" cy="196" r="3" fill="#FF8C00" opacity="0.6"/>
  <circle cx="588" cy="168" r="4" fill="#FFB300" opacity="0.7"/>
</svg>
