<svg viewBox="0 0 640 360" fill="none" xmlns="http://www.w3.org/2000/svg">
  <rect width="640" height="360" fill="#030D12"/>
  <circle cx="320" cy="180" r="18" fill="#06B6D4" opacity="0.9"/>
  <circle cx="180" cy="120" r="12" fill="#0E7490" opacity="0.7"/>
  <circle cx="460" cy="110" r="12" fill="#0E7490" opacity="0.7"/>
  <circle cx="140" cy="240" r="10" fill="#F87171" opacity="0.6"/>
  <circle cx="500" cy="250" r="10" fill="#F87171" opacity="0.6"/>
  <circle cx="250" cy="280" r="8" fill="#FCD34D" opacity="0.5"/>
  <circle cx="400" cy="290" r="8" fill="#FCD34D" opacity="0.5"/>
  <line x1="320" y1="180" x2="180" y2="120" stroke="#06B6D4" stroke-width="1" opacity="0.3"/>
  <line x1="320" y1="180" x2="460" y2="110" stroke="#06B6D4" stroke-width="1" opacity="0.3"/>
  <line x1="320" y1="180" x2="140" y2="240" stroke="#F87171" stroke-width="1" opacity="0.25"/>
  <line x1="320" y1="180" x2="500" y2="250" stroke="#F87171" stroke-width="1" opacity="0.25"/>
  <line x1="320" y1="180" x2="250" y2="280" stroke="#FCD34D" stroke-width="0.8" opacity="0.2"/>
  <line x1="320" y1="180" x2="400" y2="290" stroke="#FCD34D" stroke-width="0.8" opacity="0.2"/>
  <rect x="20" y="20" width="180" height="320" rx="12" fill="#040F14" stroke="#0A2A34" stroke-width="1"/>
  <rect x="34" y="36" width="80" height="7" rx="3" fill="#06B6D4" opacity="0.8"/>
  <rect x="34" y="52" width="152" height="1" fill="#0A2A34"/>
  <rect x="34" y="66" width="36" height="16" rx="6" fill="#2D0A0A"/>
  <rect x="38" y="71" width="28" height="5" rx="2.5" fill="#F87171" opacity="0.9"/>
  <rect x="76" y="66" width="100" height="5" rx="2.5" fill="#374151"/>
  <rect x="76" y="76" width="80" height="5" rx="2.5" fill="#1E3A40"/>
  <rect x="34" y="94" width="36" height="16" rx="6" fill="#2D0A0A"/>
  <rect x="38" y="99" width="28" height="5" rx="2.5" fill="#F87171" opacity="0.9"/>
  <rect x="76" y="94" width="80" height="5" rx="2.5" fill="#374151"/>
  <rect x="76" y="104" width="100" height="5" rx="2.5" fill="#1E3A40"/>
  <rect x="34" y="122" width="36" height="16" rx="6" fill="#1A2A14"/>
  <rect x="38" y="127" width="28" height="5" rx="2.5" fill="#4ADE80" opacity="0.9"/>
  <rect x="76" y="122" width="100" height="5" rx="2.5" fill="#374151"/>
  <rect x="76" y="132" width="60" height="5" rx="2.5" fill="#1E3A40"/>
  <rect x="34" y="158" width="152" height="60" rx="8" fill="#040A10"/>
  <text x="110" y="192" text-anchor="middle" fill="#F87171" font-family="monospace" font-size="28" font-weight="900">74%</text>
  <rect x="46" y="207" width="128" height="4" rx="2" fill="#1E3A40"/>
  <rect x="46" y="207" width="96" height="4" rx="2" fill="#F87171" opacity="0.7"/>
  <rect x="34" y="228" width="152" height="90" rx="8" fill="#040A10"/>
  <rect x="44" y="240" width="80" height="5" rx="2.5" fill="#06B6D4" opacity="0.7"/>
  <rect x="44" y="252" width="132" height="4" rx="2" fill="#1E3A40"/>
  <rect x="44" y="262" width="120" height="4" rx="2" fill="#1E3A40"/>
  <rect x="44" y="272" width="100" height="4" rx="2" fill="#1E3A40"/>
  <rect x="44" y="282" width="110" height="4" rx="2" fill="#1E3A40"/>
  <rect x="44" y="292" width="80" height="4" rx="2" fill="#06B6D4" opacity="0.3"/>
  <rect x="440" y="20" width="180" height="320" rx="12" fill="#040F14" stroke="#0A2A34" stroke-width="1"/>
  <rect x="454" y="36" width="80" height="7" rx="3" fill="#06B6D4" opacity="0.8"/>
  <rect x="454" y="60" width="152" height="200" rx="8" fill="#030A10"/>
  <rect x="464" y="72" width="100" height="6" rx="3" fill="#06B6D4" opacity="0.6"/>
  <rect x="464" y="84" width="80" height="6" rx="3" fill="#F87171" opacity="0.5"/>
  <rect x="464" y="96" width="120" height="6" rx="3" fill="#06B6D4" opacity="0.4"/>
  <rect x="464" y="108" width="60" height="6" rx="3" fill="#F87171" opacity="0.6"/>
  <rect x="464" y="120" width="110" height="6" rx="3" fill="#4ADE80" opacity="0.5"/>
  <rect x="464" y="132" width="90" height="6" rx="3" fill="#06B6D4" opacity="0.5"/>
  <rect x="464" y="144" width="100" height="6" rx="3" fill="#F87171" opacity="0.7"/>
  <rect x="464" y="156" width="70" height="6" rx="3" fill="#06B6D4" opacity="0.4"/>
  <rect x="464" y="168" width="130" height="6" rx="3" fill="#FCD34D" opacity="0.5"/>
  <rect x="464" y="180" width="80" height="6" rx="3" fill="#F87171" opacity="0.6"/>
  <rect x="464" y="192" width="100" height="6" rx="3" fill="#06B6D4" opacity="0.5"/>
  <rect x="464" y="204" width="60" height="6" rx="3" fill="#4ADE80" opacity="0.4"/>
  <rect x="464" y="216" width="90" height="6" rx="3" fill="#F87171" opacity="0.7"/>
  <rect x="464" y="228" width="110" height="6" rx="3" fill="#06B6D4" opacity="0.4"/>
  <rect x="464" y="240" width="80" height="6" rx="3" fill="#F87171" opacity="0.5"/>
</svg>
